<?xml version="1.0" standalone="no"?>
<!DOCTYPE svg PUBLIC "-//W3C//DTD SVG 20010904//EN"
 "http://www.w3.org/TR/2001/REC-SVG-20010904/DTD/svg10.dtd">
<svg version="1.0" xmlns="http://www.w3.org/2000/svg"
 width="2995.000000pt" height="2995.000000pt" viewBox="0 0 2995.000000 2995.000000"
 preserveAspectRatio="xMidYMid meet">
<metadata>
Created by potrace 1.14, written by Peter Selinger 2001-2017
</metadata>
<g transform="translate(0.000000,2995.000000) scale(0.100000,-0.100000)"
fill="#000000" stroke="none">
<path d="M14509 29935 c-2 -2 -83 -6 -179 -10 -96 -4 -195 -8 -220 -10 -25 -2
-90 -6 -145 -9 -55 -4 -118 -9 -140 -11 -22 -2 -76 -7 -120 -10 -44 -3 -96 -8
-115 -10 -34 -4 -86 -10 -192 -20 -29 -3 -69 -7 -88 -10 -19 -2 -60 -7 -90
-10 -30 -4 -66 -8 -80 -10 -14 -2 -63 -9 -110 -15 -47 -6 -98 -12 -115 -15
-16 -2 -66 -9 -110 -16 -44 -6 -89 -13 -100 -15 -10 -2 -37 -6 -60 -9 -22 -4
-89 -15 -150 -25 -60 -11 -126 -22 -145 -25 -50 -8 -287 -54 -340 -66 -25 -5
-54 -11 -65 -13 -338 -64 -942 -220 -1435 -370 -102 -31 -575 -190 -616 -207
-16 -7 -31 -13 -34 -13 -17 -4 -273 -101 -480 -183 -131 -52 -429 -179 -538
-229 -41 -19 -75 -34 -78 -34 -3 0 -171 -80 -436 -208 -65 -31 -118 -59 -118
-62 0 -8 433 -294 570 -377 696 -421 1466 -760 2360 -1039 130 -41 191 -58
380 -110 55 -15 322 -83 350 -89 8 -2 47 -11 85 -20 39 -9 81 -19 95 -21 14
-3 41 -9 60 -14 19 -5 46 -11 60 -14 14 -3 104 -21 200 -40 96 -19 186 -37
200 -39 33 -6 89 -16 120 -21 14 -2 52 -9 85 -15 33 -6 80 -13 105 -16 25 -3
70 -10 100 -15 61 -10 87 -14 210 -30 47 -6 96 -13 110 -15 14 -2 56 -6 93
-10 37 -3 77 -8 89 -10 11 -3 55 -7 97 -10 42 -4 87 -8 101 -10 14 -2 59 -6
100 -10 41 -3 95 -7 120 -10 25 -2 88 -7 140 -10 52 -3 120 -8 150 -10 212
-16 719 -19 3500 -20 1719 -1 3145 -5 3170 -8 25 -4 65 -9 90 -12 59 -7 191
-24 216 -29 10 -2 39 -7 64 -10 25 -3 56 -8 70 -11 14 -3 52 -10 85 -15 33 -6
92 -17 130 -26 39 -8 79 -16 90 -18 20 -4 210 -52 320 -81 474 -124 1118 -397
1556 -660 50 -30 93 -55 95 -55 5 0 156 -97 284 -183 107 -72 300 -211 356
-256 17 -15 55 -44 84 -66 29 -22 57 -44 64 -50 6 -5 38 -32 71 -60 33 -27 62
-52 65 -55 3 -3 23 -20 45 -39 263 -222 655 -625 885 -910 19 -24 40 -48 46
-55 63 -67 402 -533 474 -651 13 -22 28 -41 32 -43 4 -2 8 -7 8 -12 0 -5 18
-35 40 -68 57 -87 225 -375 314 -540 214 -395 435 -908 597 -1380 45 -132 135
-422 144 -463 2 -9 12 -47 24 -85 50 -173 186 -774 206 -914 2 -14 15 -95 29
-180 14 -85 27 -175 31 -200 3 -25 8 -56 10 -70 4 -25 11 -81 20 -170 3 -25 7
-61 9 -80 3 -19 8 -69 12 -110 4 -41 8 -88 10 -105 2 -16 6 -68 9 -115 4 -47
8 -103 10 -125 27 -330 26 -1251 0 -1580 -2 -27 -7 -90 -10 -140 -3 -49 -7
-110 -10 -135 -2 -25 -6 -81 -10 -125 -3 -44 -8 -93 -10 -110 -2 -16 -7 -61
-10 -98 -4 -37 -8 -76 -10 -86 -2 -10 -6 -54 -10 -97 -4 -43 -9 -81 -10 -84
-2 -3 -6 -34 -10 -69 -4 -34 -8 -72 -11 -84 -2 -12 -6 -39 -9 -62 -8 -52 -24
-154 -29 -180 -2 -11 -7 -42 -11 -70 -11 -71 -12 -76 -19 -120 -4 -22 -9 -48
-12 -57 -3 -10 -7 -30 -10 -45 -15 -90 -62 -302 -100 -453 -25 -96 -46 -183
-49 -194 -2 -10 -7 -21 -9 -24 -3 -2 20 -39 52 -81 209 -282 612 -888 612
-922 0 -5 5 -9 10 -9 6 0 10 -3 10 -8 0 -4 47 -91 106 -192 95 -168 321 -609
368 -720 11 -25 34 -76 51 -115 79 -172 199 -486 285 -745 59 -178 160 -525
175 -600 2 -8 10 -42 18 -75 9 -33 18 -71 21 -85 3 -14 14 -68 26 -120 25
-111 85 -433 95 -505 3 -27 8 -59 11 -70 2 -11 6 -36 8 -55 3 -19 9 -66 15
-105 5 -38 13 -99 16 -135 4 -36 8 -76 11 -90 2 -14 6 -56 10 -94 6 -62 9 -91
14 -106 2 -8 158 427 185 520 8 25 32 104 55 175 101 317 235 804 295 1074 2
9 15 66 30 126 14 61 28 124 30 140 3 17 8 37 10 45 2 8 7 30 10 48 3 18 12
65 21 105 51 239 124 667 149 877 3 19 7 49 10 65 2 17 7 53 10 80 3 28 8 61
10 75 2 14 6 50 10 80 3 30 8 71 10 90 7 51 13 106 20 180 3 36 8 81 10 100 2
19 7 73 10 120 4 47 8 101 10 120 3 32 10 123 20 290 27 429 27 1268 0 1710
-6 95 -17 254 -20 290 -2 19 -6 79 -10 134 -4 54 -8 108 -11 119 -2 11 -6 52
-9 91 -3 39 -7 82 -10 96 -2 14 -7 53 -10 87 -3 34 -7 70 -10 80 -2 11 -6 53
-10 94 -4 40 -8 76 -10 79 -2 3 -6 34 -10 70 -4 36 -9 73 -10 82 -2 9 -11 68
-20 130 -9 62 -27 178 -41 258 -14 80 -27 159 -30 175 -2 17 -9 53 -14 80 -6
28 -12 61 -15 75 -13 69 -46 237 -50 255 -12 59 -67 303 -71 320 -3 11 -7 30
-10 43 -4 19 -38 159 -48 197 -1 6 -6 26 -10 45 -5 19 -30 117 -57 218 -47
175 -79 289 -149 522 -34 115 -215 663 -230 695 -5 11 -18 47 -30 80 -11 33
-24 69 -29 80 -5 11 -26 65 -46 120 -20 55 -41 109 -45 120 -5 11 -27 65 -49
120 -71 183 -234 557 -329 760 -63 134 -332 670 -380 755 -17 30 -45 82 -62
115 -50 94 -260 456 -291 502 -16 23 -29 44 -29 47 0 9 -236 380 -343 541
-190 284 -491 699 -668 921 -35 45 -77 98 -94 119 -67 86 -175 217 -260 315
-22 25 -62 73 -90 105 -199 234 -424 475 -750 800 -286 286 -495 485 -654 621
-19 16 -44 38 -55 49 -12 11 -66 58 -121 105 -55 46 -111 94 -125 106 -102 88
-138 117 -415 333 -213 167 -243 189 -470 355 -99 73 -345 241 -500 343 -104
69 -202 133 -217 144 -15 10 -32 19 -38 19 -5 0 -10 5 -10 10 0 6 -4 10 -9 10
-5 0 -58 31 -118 68 -111 70 -504 300 -626 366 -37 20 -84 46 -103 57 -384
215 -1097 549 -1579 739 -99 39 -195 77 -213 85 -18 8 -37 15 -43 15 -6 0 -25
7 -42 15 -98 45 -610 219 -902 306 -93 28 -177 53 -185 56 -20 8 -25 9 -90 27
-30 8 -129 34 -220 59 -91 24 -194 52 -230 60 -36 9 -103 26 -150 37 -47 12
-125 30 -175 41 -49 11 -97 22 -105 24 -30 6 -316 66 -340 71 -14 2 -36 6 -50
9 -14 3 -50 9 -80 15 -30 6 -66 12 -80 15 -30 6 -264 45 -300 50 -14 2 -86 13
-160 24 -74 12 -153 23 -175 26 -22 3 -58 8 -80 11 -73 9 -100 12 -160 19 -33
4 -71 8 -85 10 -48 7 -125 15 -185 20 -33 3 -76 7 -95 9 -19 3 -71 7 -115 11
-44 3 -103 8 -130 11 -28 3 -82 7 -120 9 -68 3 -164 9 -365 21 -106 7 -1136
15 -1141 9z"/>
<path d="M6050 26989 c-74 -54 -142 -105 -150 -112 -8 -7 -64 -50 -125 -97
-60 -46 -137 -107 -171 -135 -33 -27 -76 -62 -95 -77 -61 -47 -440 -371 -513
-437 -21 -20 -54 -49 -72 -66 -18 -16 -79 -73 -136 -125 -132 -121 -677 -667
-788 -789 -47 -51 -96 -105 -110 -120 -48 -52 -205 -231 -256 -290 -16 -19
-45 -53 -64 -75 -221 -253 -539 -665 -840 -1085 -48 -68 -295 -436 -375 -561
-163 -252 -420 -691 -555 -945 -29 -55 -70 -133 -92 -172 -48 -91 -225 -445
-268 -538 -18 -38 -51 -108 -73 -155 -263 -563 -541 -1300 -741 -1965 -70
-234 -180 -642 -201 -745 -2 -8 -8 -35 -15 -60 -12 -44 -17 -63 -26 -106 -2
-12 -18 -82 -34 -155 -17 -73 -33 -144 -35 -158 -3 -15 -7 -37 -10 -51 -3 -14
-7 -36 -10 -50 -2 -14 -8 -45 -14 -70 -5 -25 -12 -58 -15 -75 -3 -16 -8 -41
-11 -55 -2 -13 -7 -42 -11 -65 -3 -22 -10 -59 -15 -83 -5 -23 -12 -59 -15 -80
-2 -20 -11 -73 -19 -117 -8 -44 -17 -100 -20 -125 -8 -59 -14 -99 -20 -130 -6
-29 -51 -388 -60 -475 -4 -33 -8 -71 -10 -85 -2 -14 -7 -56 -10 -95 -6 -67 -8
-88 -20 -215 -3 -30 -7 -84 -10 -120 -2 -36 -7 -99 -10 -140 -24 -325 -30
-530 -29 -1010 0 -400 3 -547 19 -860 5 -97 16 -257 20 -295 2 -16 6 -68 10
-115 3 -47 8 -96 10 -110 3 -14 7 -56 10 -95 6 -93 21 -226 30 -285 2 -14 6
-50 10 -80 3 -30 7 -66 9 -80 2 -14 7 -47 11 -75 3 -27 8 -63 11 -80 5 -38 13
-95 19 -142 3 -21 7 -47 10 -59 2 -12 9 -52 15 -90 5 -38 12 -80 14 -94 3 -14
12 -65 20 -115 9 -49 18 -100 20 -111 2 -12 7 -37 10 -55 3 -19 17 -90 31
-159 14 -69 27 -134 30 -145 54 -271 158 -702 226 -939 11 -39 27 -96 35 -126
133 -492 423 -1311 640 -1808 8 -17 20 -47 28 -65 169 -387 419 -902 584
-1197 13 -25 38 -70 54 -100 17 -30 32 -59 35 -63 3 -4 35 36 71 90 37 54 81
116 97 138 17 22 33 44 37 50 16 21 183 231 193 241 5 6 48 54 95 107 99 113
329 340 450 447 47 40 90 79 95 85 6 5 64 53 130 106 314 251 617 456 965 652
103 58 513 267 524 267 2 0 42 17 88 39 45 21 135 60 198 86 63 26 124 51 135
56 304 130 979 335 1345 410 30 6 71 15 90 19 29 7 128 26 335 65 27 5 50 8
125 20 45 7 244 36 285 41 148 18 185 23 255 29 36 3 85 8 110 10 25 3 79 7
120 10 41 3 98 8 125 10 192 15 753 18 3360 18 l2940 -1 -2 921 c-6 2005 -10
7023 -6 7037 3 13 31 15 191 13 103 -1 540 -4 972 -8 432 -3 1015 -8 1295 -10
613 -5 1589 -13 2540 -20 708 -6 940 -10 985 -19 14 -3 52 -7 85 -10 33 -3 76
-8 95 -11 19 -2 58 -7 85 -10 28 -3 66 -8 85 -11 19 -3 49 -7 65 -9 289 -40
658 -108 920 -170 61 -15 118 -28 128 -30 9 -2 45 -11 80 -20 34 -9 69 -18 77
-20 48 -12 290 -80 375 -106 467 -144 888 -305 1340 -514 98 -45 436 -214 450
-225 6 -4 46 -26 90 -49 44 -23 87 -46 95 -51 8 -5 71 -42 140 -81 218 -126
581 -358 759 -488 157 -114 357 -265 363 -275 15 -23 19 2 34 214 6 97 7 502
0 630 -6 110 -17 285 -21 330 -2 19 -6 73 -10 120 -4 47 -8 96 -10 110 -2 14
-7 50 -10 80 -9 93 -32 267 -40 310 -4 24 -10 62 -21 140 -2 19 -9 55 -14 80
-4 25 -14 74 -20 110 -36 198 -91 444 -142 635 -16 61 -31 118 -33 127 -2 10
-22 80 -45 155 -151 502 -314 911 -536 1348 -140 276 -157 309 -166 313 -5 2
-8 7 -8 12 0 5 -28 55 -61 112 -34 57 -67 112 -73 123 -44 77 -267 409 -278
413 -4 2 -8 10 -8 17 0 7 -3 15 -8 17 -4 2 -53 64 -109 138 -55 74 -116 153
-134 175 -138 162 -181 211 -257 294 -164 179 -406 412 -552 531 -23 19 -54
45 -69 58 -35 31 -363 278 -376 283 -5 2 -62 38 -125 80 -193 128 -469 278
-705 384 -334 150 -793 286 -1140 340 -22 3 -51 7 -65 10 -14 2 -52 6 -85 10
-33 4 -73 8 -90 10 -16 2 -64 7 -105 10 -41 4 -102 9 -135 13 -33 3 -1212 7
-2620 9 -1408 2 -2657 5 -2775 7 -345 8 -640 19 -790 31 -36 3 -103 7 -150 10
-47 3 -110 8 -140 11 -30 3 -75 7 -100 9 -69 6 -172 16 -205 20 -16 2 -61 7
-98 10 -37 4 -76 8 -85 10 -10 2 -48 6 -84 9 -37 4 -75 8 -85 10 -10 2 -43 7
-73 10 -30 4 -66 8 -80 10 -14 3 -47 7 -75 11 -27 3 -57 8 -65 10 -8 2 -37 6
-65 10 -27 3 -90 13 -140 21 -49 9 -102 17 -117 19 -24 4 -110 19 -164 29 -12
2 -37 7 -55 10 -19 3 -83 15 -144 27 -60 11 -121 23 -135 25 -14 3 -41 9 -60
14 -19 5 -49 12 -67 15 -65 11 -315 69 -503 117 -107 27 -203 51 -214 53 -10
2 -82 23 -160 46 -77 22 -148 42 -157 44 -96 20 -716 229 -999 337 -1083 416
-2028 941 -2854 1586 -54 42 -104 82 -110 87 -6 6 -51 43 -101 84 -49 41 -97
82 -106 90 -9 9 -27 25 -40 36 -13 11 -35 30 -49 42 l-26 21 -134 -99z"/>
<path d="M16132 13405 l3 -2780 765 4 c421 2 1521 4 2445 5 924 2 1691 6 1705
9 14 4 38 10 53 12 301 55 692 228 1052 464 84 55 211 143 250 173 6 5 46 36
90 70 81 62 217 176 310 258 105 93 436 430 541 551 467 536 857 1121 1196
1790 l73 145 -135 131 c-74 73 -147 142 -161 155 -14 13 -62 56 -107 97 -73
66 -201 173 -322 271 -234 189 -628 457 -875 595 -27 15 -86 48 -130 72 -217
121 -603 297 -840 383 -49 17 -99 36 -110 40 -18 8 -159 53 -293 95 -157 48
-576 144 -701 160 -18 2 -41 6 -50 9 -9 3 -43 8 -76 12 -33 3 -69 8 -80 9 -11
2 -45 6 -75 9 -30 4 -66 9 -80 11 -14 2 -65 7 -115 10 -49 3 -112 9 -140 12
-27 3 -983 6 -2123 7 l-2072 1 2 -2780z"/>
<path d="M26064 12039 c-16 -24 -31 -46 -34 -49 -3 -3 -53 -77 -112 -165 -113
-168 -227 -336 -252 -370 -55 -77 -230 -311 -235 -315 -4 -3 -45 -52 -93 -110
-81 -99 -99 -120 -166 -195 -15 -17 -58 -66 -97 -109 -38 -44 -81 -92 -95
-106 -14 -15 -72 -78 -130 -141 -138 -150 -489 -501 -614 -614 -54 -50 -109
-99 -120 -110 -58 -55 -270 -232 -376 -315 -25 -19 -52 -40 -60 -47 -8 -7 -64
-49 -125 -92 -60 -44 -114 -84 -120 -88 -5 -4 -48 -33 -95 -63 -47 -30 -87
-57 -90 -61 -3 -3 -21 -14 -40 -25 -19 -10 -37 -21 -40 -24 -3 -3 -16 -11 -30
-19 -14 -8 -74 -44 -135 -79 -139 -81 -497 -256 -565 -277 -14 -4 -29 -11 -35
-15 -5 -4 -75 -31 -155 -60 -80 -29 -154 -56 -165 -61 -32 -12 -164 -51 -167
-48 -2 1 -12 -3 -24 -9 -17 -9 -259 -76 -319 -88 -36 -7 -59 -12 -110 -24 -27
-6 -61 -14 -75 -16 -14 -3 -32 -7 -40 -9 -8 -3 -33 -7 -55 -10 -22 -4 -47 -8
-55 -10 -8 -3 -32 -7 -54 -11 -21 -3 -46 -7 -55 -9 -15 -2 -62 -10 -133 -21
-16 -2 -40 -6 -55 -8 -67 -11 -182 -26 -233 -31 -30 -3 -68 -8 -85 -10 -16 -2
-61 -6 -100 -10 -38 -4 -86 -8 -105 -10 -92 -9 -244 -20 -410 -30 -69 -4 -140
-8 -158 -10 -18 -1 -39 4 -47 11 -11 11 -322 14 -1836 14 -1141 1 -1825 -2
-1831 -8 -10 -10 -10 -1283 -4 -6127 l3 -2010 39 1 c47 1 252 18 347 30 71 8
112 13 172 19 33 3 71 8 85 10 14 2 48 6 75 10 28 3 61 8 75 10 14 2 59 8 100
14 124 17 152 21 215 31 69 11 298 49 335 56 14 2 41 7 60 10 53 8 196 37 425
84 155 32 526 118 620 144 33 9 110 30 170 45 98 26 278 78 535 154 307 92
1053 357 1255 447 11 5 115 49 230 98 116 49 246 106 290 127 44 20 116 53
160 73 288 132 792 394 1135 592 224 129 231 133 244 143 6 4 85 53 176 108
460 281 1036 689 1495 1060 599 484 1284 1135 1750 1665 6 6 38 42 71 80 34
38 94 107 134 154 40 47 84 99 99 115 14 17 42 50 62 75 20 25 46 56 58 70 36
43 177 221 227 285 91 119 241 316 254 335 8 12 44 61 80 110 68 93 98 136
217 308 l71 104 -3 202 c-2 110 -6 260 -10 331 -5 116 -8 171 -20 350 -5 79
-15 206 -20 250 -2 22 -9 87 -15 145 -19 177 -20 191 -36 310 -17 135 -18 145
-45 315 -29 188 -28 183 -44 270 -8 44 -17 94 -20 110 -2 17 -7 41 -10 55 -3
14 -7 36 -10 50 -8 43 -14 74 -20 100 -3 14 -7 36 -10 50 -7 37 -21 99 -61
270 -20 85 -38 164 -40 175 -9 50 -139 515 -180 645 -99 318 -258 760 -326
910 -11 25 -26 61 -33 80 -31 86 -194 438 -294 636 l-109 216 -28 -43z"/>
<path d="M8667 8194 c-1 -1 -86 -5 -188 -8 -102 -4 -197 -8 -210 -11 -13 -2
-66 -6 -117 -10 -51 -3 -101 -8 -110 -10 -9 -1 -51 -6 -92 -10 -41 -4 -77 -8
-80 -10 -3 -2 -30 -6 -60 -9 -30 -3 -64 -8 -75 -10 -11 -2 -40 -7 -65 -11 -25
-4 -52 -9 -61 -10 -9 -2 -32 -6 -50 -9 -198 -32 -592 -131 -839 -211 -595
-194 -1141 -469 -1625 -819 -67 -48 -298 -229 -321 -250 -6 -6 -44 -40 -85
-75 -83 -73 -341 -329 -409 -407 -278 -317 -486 -620 -659 -958 -41 -82 -48
-103 -38 -115 68 -86 341 -389 522 -580 276 -292 800 -795 985 -947 19 -16 40
-34 45 -40 63 -71 742 -612 1025 -817 14 -10 72 -52 130 -93 107 -77 590 -401
690 -463 276 -171 435 -266 590 -354 375 -212 912 -484 1270 -644 30 -13 73
-33 95 -43 22 -10 101 -44 175 -75 74 -31 149 -63 165 -70 84 -38 376 -151
625 -242 126 -46 603 -205 716 -239 281 -83 665 -189 726 -199 17 -3 35 -8 40
-11 4 -3 16 -7 25 -9 10 -2 88 -20 173 -40 181 -42 548 -118 670 -140 47 -8
95 -17 106 -19 12 -2 37 -7 55 -10 19 -3 43 -7 54 -10 11 -2 43 -7 70 -11 28
-5 52 -9 55 -10 3 0 32 -5 65 -9 32 -4 68 -10 79 -12 11 -2 38 -6 61 -9 22 -3
47 -8 55 -10 8 -2 46 -7 85 -10 38 -4 72 -8 75 -10 3 -2 34 -6 70 -10 36 -4
73 -9 83 -11 10 -2 46 -6 80 -9 34 -3 73 -8 87 -10 14 -2 51 -7 83 -10 137
-12 166 -15 227 -20 36 -3 83 -8 105 -10 41 -4 131 -11 268 -20 l78 -5 -3
4081 c-2 3225 -6 4083 -15 4086 -11 4 -5402 11 -5406 7z"/>
</g>
</svg>
